<svg id="Layer_1" enable-background="new 0 0 256 256" height="512" viewBox="0 0 256 256" width="512" xmlns="http://www.w3.org/2000/svg"><ellipse cx="133.392" cy="217.732" fill="#87796f" rx="21.759" ry="21.759" transform="matrix(.526 -.851 .851 .526 -121.95 216.733)"/><path d="m133.392 194.473c-12.825 0-23.259 10.434-23.259 23.259s10.434 23.259 23.259 23.259 23.259-10.434 23.259-23.259-10.434-23.259-23.259-23.259zm0 43.518c-11.171 0-20.259-9.088-20.259-20.259s9.088-20.259 20.259-20.259 20.259 9.088 20.259 20.259-9.088 20.259-20.259 20.259z" fill="#3a312a"/><path d="m133.392 208.831c-4.916 0-8.901 3.985-8.901 8.901s3.985 8.901 8.901 8.901 8.901-3.985 8.901-8.901-3.986-8.901-8.901-8.901z" fill="#f8e4c8"/><path d="m133.392 207.331c-5.735 0-10.401 4.666-10.401 10.401s4.666 10.401 10.401 10.401 10.401-4.666 10.401-10.401-4.666-10.401-10.401-10.401zm0 17.802c-4.081 0-7.401-3.32-7.401-7.401s3.32-7.401 7.401-7.401 7.401 3.32 7.401 7.401-3.32 7.401-7.401 7.401z" fill="#3a312a"/><ellipse cx="188.608" cy="217.732" fill="#87796f" rx="21.759" ry="21.759" transform="matrix(.707 -.707 .707 .707 -98.718 197.139)"/><path d="m188.608 194.473c-12.825 0-23.259 10.434-23.259 23.259s10.434 23.259 23.259 23.259 23.259-10.434 23.259-23.259-10.433-23.259-23.259-23.259zm0 43.518c-11.171 0-20.259-9.088-20.259-20.259s9.088-20.259 20.259-20.259 20.259 9.088 20.259 20.259-9.088 20.259-20.259 20.259z" fill="#3a312a"/><path d="m188.608 208.831c-4.916 0-8.901 3.985-8.901 8.901s3.985 8.901 8.901 8.901 8.901-3.985 8.901-8.901c.001-4.916-3.985-8.901-8.901-8.901z" fill="#f8e4c8"/><path d="m188.608 207.331c-5.735 0-10.401 4.666-10.401 10.401s4.666 10.401 10.401 10.401 10.401-4.666 10.401-10.401c.001-5.735-4.665-10.401-10.401-10.401zm0 17.802c-4.081 0-7.401-3.32-7.401-7.401s3.32-7.401 7.401-7.401 7.401 3.32 7.401 7.401c.001 4.081-3.32 7.401-7.401 7.401z" fill="#3a312a"/><path d="m235.986 66.973h-158.09l25.01 98.95h105.33c2.922 0 5.511-1.882 6.414-4.661l27.75-85.463c1.414-4.356-1.833-8.826-6.414-8.826z" fill="#89c4db"/><path d="m242.654 68.871c-1.568-2.159-3.999-3.398-6.668-3.398h-158.09c-.462 0-.899.213-1.184.579-.284.365-.384.84-.271 1.289l25.01 98.95c.168.666.767 1.132 1.454 1.132h58.657c.828 0 1.5-.671 1.5-1.5s-.672-1.5-1.5-1.5h-57.489l-24.252-95.95h156.164c1.697 0 3.243.788 4.241 2.161.998 1.374 1.27 3.087.745 4.702l-27.75 85.463c-.704 2.168-2.709 3.625-4.987 3.625h-31.769c-.828 0-1.5.671-1.5 1.5s.672 1.5 1.5 1.5h31.769c3.582 0 6.732-2.289 7.841-5.697l27.75-85.463c.825-2.54.399-5.234-1.171-7.393z" fill="#3a312a"/><path d="m219.014 181.471h-112.183l-40.31-159.487c-.813-3.219-3.71-5.474-7.03-5.474h-38.974c-4.005 0-7.251 3.247-7.251 7.251s3.246 7.251 7.251 7.251h33.328l5.531 21.885 3.836 15.175 30.943 122.427c.813 3.219 3.709 5.475 7.03 5.475h117.83c4.005 0 7.251-3.247 7.251-7.251 0-4.005-3.247-7.252-7.252-7.252z" fill="#87796f"/><path d="m219.015 179.971h-111.016l-40.024-158.355c-.983-3.89-4.472-6.607-8.484-6.607h-38.974c-4.825 0-8.751 3.926-8.751 8.751 0 4.826 3.926 8.751 8.751 8.751h32.16l5.245 20.752c.203.803 1.016 1.289 1.822 1.086.803-.203 1.289-1.019 1.086-1.822l-5.531-21.884c-.168-.666-.767-1.132-1.454-1.132h-33.328c-3.171 0-5.751-2.58-5.751-5.751s2.58-5.751 5.751-5.751h38.975c2.637 0 4.93 1.786 5.576 4.342l40.31 159.487c.168.666.767 1.132 1.454 1.132h112.184c3.171 0 5.751 2.58 5.751 5.751s-2.58 5.751-5.751 5.751h-117.83c-2.637 0-4.929-1.786-5.575-4.342l-30.945-122.426c-.203-.803-1.015-1.289-1.822-1.086-.803.203-1.289 1.018-1.086 1.822l30.943 122.426c.983 3.891 4.471 6.607 8.484 6.607h117.83c4.825 0 8.751-3.926 8.751-8.751s-3.926-8.751-8.751-8.751z" fill="#3a312a"/><path d="m240.226 70.633c-1-1.37-2.54-2.16-4.24-2.16h-15c1.7 0 3.24.79 4.24 2.16s1.27 3.09.75 4.7l-27.75 85.47c-.71 2.16-2.71 3.62-4.99 3.62h15c2.28 0 4.28-1.46 4.99-3.62l27.75-85.47c.52-1.61.25-3.33-.75-4.7z" fill="#6da4bd"/><path d="m219.016 182.973h-15c3.17 0 5.75 2.58 5.75 5.75s-2.58 5.75-5.75 5.75h15c3.17 0 5.75-2.58 5.75-5.75s-2.58-5.75-5.75-5.75z" fill="#6a5c52"/><path d="m50.246 93.193c-.974 11.564-13.025 13.39-13.025 13.39 10.347.487 12.925 14.059 12.925 14.059.221-9.677 13.321-14.202 13.321-14.202-9.813-.588-13.221-13.247-13.221-13.247z" fill="#d5de58"/><path d="m63.557 104.942c-8.604-.514-11.831-12.024-11.863-12.14-.191-.703-.858-1.164-1.583-1.102-.725.066-1.298.642-1.359 1.367-.86 10.215-11.313 11.963-11.754 12.032-.763.115-1.313.79-1.273 1.561.04.77.657 1.384 1.427 1.421 9.028.425 11.499 12.719 11.523 12.843.137.711.759 1.217 1.472 1.217.042 0 .084-.002.126-.005.764-.064 1.357-.693 1.375-1.459.194-8.509 12.191-12.777 12.313-12.819.675-.235 1.092-.914.994-1.622-.101-.71-.684-1.251-1.398-1.294zm-13.566 10.346c-1.357-3.13-3.709-6.907-7.587-8.877 2.931-1.405 6.409-3.913 8.202-8.273 1.551 3.071 4.2 6.88 8.334 8.722-3.007 1.641-6.922 4.406-8.949 8.428z" fill="#3a312a"/><path d="m28.547 110.174c-.689 8.179-9.213 9.47-9.213 9.47 7.318.344 9.142 9.944 9.142 9.944.156-6.844 9.422-10.045 9.422-10.045-6.94-.415-9.351-9.369-9.351-9.369z" fill="#d5de58"/><path d="m37.988 118.045c-5.766-.345-7.972-8.185-7.994-8.264-.19-.702-.851-1.17-1.582-1.102-.726.065-1.299.642-1.36 1.368-.579 6.871-7.646 8.066-7.942 8.113-.763.115-1.313.79-1.273 1.561.04.77.657 1.384 1.427 1.421 6.036.284 7.724 8.644 7.739 8.726.135.713.759 1.22 1.472 1.22.042 0 .083-.001.125-.005.765-.064 1.358-.694 1.376-1.461.13-5.709 8.332-8.634 8.413-8.662.677-.234 1.094-.913.996-1.622-.097-.708-.682-1.25-1.397-1.293zm-9.584 6.796c-.924-1.886-2.34-3.947-4.447-5.28 1.856-1.042 3.697-2.63 4.871-4.917 1.057 1.874 2.654 3.955 4.941 5.224-1.85 1.101-3.989 2.741-5.365 4.973z" fill="#3a312a"/><path d="m28.547 83.516c-.689 8.179-9.213 9.471-9.213 9.471 7.318.344 9.142 9.944 9.142 9.944.156-6.845 9.422-10.045 9.422-10.045-6.94-.416-9.351-9.37-9.351-9.37z" fill="#d5de58"/><path d="m37.989 91.388c-5.767-.345-7.973-8.186-7.994-8.265-.19-.702-.851-1.163-1.582-1.102-.726.065-1.299.642-1.36 1.368-.579 6.871-7.646 8.067-7.942 8.114-.763.115-1.313.79-1.273 1.561.04.77.657 1.384 1.428 1.421 6.035.284 7.723 8.644 7.739 8.725.135.713.759 1.22 1.472 1.22.042 0 .083-.002.125-.005.765-.063 1.358-.694 1.376-1.461.13-5.709 8.331-8.634 8.413-8.662.676-.234 1.094-.913.996-1.622-.099-.707-.684-1.249-1.398-1.292zm-9.585 6.795c-.924-1.885-2.34-3.947-4.447-5.28 1.856-1.041 3.697-2.63 4.871-4.916 1.057 1.873 2.655 3.954 4.941 5.224-1.85 1.1-3.989 2.74-5.365 4.972z" fill="#3a312a"/><ellipse cx="64.084" cy="194.741" fill="#d6df58" rx="44.749" ry="44.749" transform="matrix(.924 -.383 .383 .924 -69.646 39.348)"/><path d="m64.084 148.492c-25.502 0-46.25 20.748-46.25 46.25s20.747 46.249 46.25 46.249c25.502 0 46.25-20.747 46.25-46.249s-20.748-46.25-46.25-46.25zm0 89.499c-23.848 0-43.25-19.402-43.25-43.249s19.402-43.25 43.25-43.25 43.25 19.402 43.25 43.25-19.402 43.249-43.25 43.249z" fill="#3a312a"/><path d="m92.932 175.151c-2.022-2.242-5.479-2.42-7.721-.397l-30.748 27.738-10.707-15.118c-1.745-2.465-5.158-3.046-7.62-1.302-2.464 1.745-3.047 5.157-1.302 7.621l14.262 20.138c.902 1.275 2.307 2.102 3.859 2.274.202.022.403.033.602.033 1.345 0 2.652-.497 3.662-1.408l35.315-31.859c2.242-2.022 2.42-5.479.398-7.72z" fill="#ef6d7a"/><path d="m94.045 174.146c-1.246-1.382-2.956-2.195-4.814-2.291-1.867-.093-3.644.539-5.025 1.785l-29.494 26.607-9.731-13.74c-1.076-1.518-2.679-2.527-4.513-2.84-1.833-.315-3.681.106-5.198 1.182-1.519 1.076-2.528 2.678-2.841 4.512s.107 3.681 1.183 5.199l14.262 20.138c1.148 1.622 2.941 2.679 4.92 2.898.256.028.511.042.765.042 1.726 0 3.383-.637 4.667-1.794l35.315-31.858c2.851-2.575 3.077-6.988.504-9.84zm-2.515 7.611-35.315 31.858c-.839.757-1.971 1.12-3.095.998-1.125-.125-2.145-.726-2.799-1.65l-14.262-20.138c-.613-.865-.852-1.916-.674-2.96.179-1.044.753-1.957 1.618-2.569.677-.48 1.469-.731 2.283-.731.224 0 .45.019.676.058 1.045.178 1.957.753 2.57 1.617l10.707 15.118c.247.35.633.577 1.059.624.425.05.851-.09 1.17-.377l30.747-27.738c.787-.711 1.804-1.075 2.861-1.017 1.058.054 2.031.518 2.741 1.305 1.466 1.624 1.337 4.137-.287 5.602z" fill="#3a312a"/></svg>